<svg width="24" height="24" viewBox="0 0 24 24" fill="none" xmlns="http://www.w3.org/2000/svg">
<path d="M23.954 5.54102L15.536 13.959C14.5974 14.8953 13.3257 15.4211 12 15.4211C10.6743 15.4211 9.40263 14.8953 8.464 13.959L0.046 5.54102C0.032 5.69902 0 5.84202 0 5.99902V17.999C0.00158786 19.3246 0.528882 20.5955 1.46622 21.5328C2.40356 22.4701 3.6744 22.9974 5 22.999H19C20.3256 22.9974 21.5964 22.4701 22.5338 21.5328C23.4711 20.5955 23.9984 19.3246 24 17.999V5.99902C24 5.84202 23.968 5.69902 23.954 5.54102Z" fill="#F7FBFF"/>
<path d="M14.1221 12.546L23.2561 3.411C22.8137 2.67732 22.1896 2.07004 21.4441 1.64773C20.6986 1.22542 19.8569 1.00234 19.0001 1H5.00014C4.14336 1.00234 3.30164 1.22542 2.55617 1.64773C1.81069 2.07004 1.18662 2.67732 0.744141 3.411L9.87814 12.546C10.4417 13.1073 11.2047 13.4225 12.0001 13.4225C12.7956 13.4225 13.5586 13.1073 14.1221 12.546Z" fill="#F7FBFF"/>
</svg>
