<svg width="24" height="24" viewBox="0 0 24 24" fill="none" xmlns="http://www.w3.org/2000/svg">
<g clip-path="url(#clip0_2632_4126)">
<path d="M4.70105 0.00390625C2.11584 0.00390625 0 2.1197 0 4.70495V19.2931C0 21.8783 2.11579 23.9934 4.70105 23.9934H19.2892C21.8745 23.9934 23.9895 21.8784 23.9895 19.2931V4.70495C23.9895 2.11975 21.8745 0.00390625 19.2892 0.00390625H4.70105ZM5.88343 3.96266C7.12298 3.96266 7.8865 4.7764 7.91006 5.84606C7.91006 6.8921 7.12294 7.72871 5.85946 7.72871H5.8362C4.62024 7.72871 3.83431 6.89215 3.83431 5.84606C3.83431 4.77643 4.64402 3.96266 5.88341 3.96266H5.88343ZM16.5654 8.9621C18.9492 8.9621 20.7363 10.5202 20.7363 13.8686V20.1193H17.1134V14.2877C17.1134 12.8222 16.5891 11.8224 15.278 11.8224C14.2771 11.8224 13.6805 12.4963 13.4186 13.1473C13.3229 13.3802 13.2994 13.7054 13.2994 14.0312V20.1193H9.67651C9.67651 20.1193 9.72406 10.2406 9.67651 9.21775H13.3001V10.7615C13.7816 10.0187 14.6427 8.96207 16.5654 8.96207V8.9621ZM4.04801 9.21854H7.67088V20.1194H4.04801V9.21854Z" fill="#F7FBFF"/>
</g>
<defs>
<clipPath id="clip0_2632_4126">
<rect width="24" height="24" fill="white"/>
</clipPath>
</defs>
</svg>
